<?xml version="1.0" standalone="no"?>
<!DOCTYPE svg PUBLIC "-//W3C//DTD SVG 20010904//EN"
 "http://www.w3.org/TR/2001/REC-SVG-20010904/DTD/svg10.dtd">
<svg version="1.0" xmlns="http://www.w3.org/2000/svg"
 width="138.000000pt" height="138.000000pt" viewBox="0 0 138.000000 138.000000"
 preserveAspectRatio="xMidYMid meet">
<metadata>
Created by potrace 1.14, written by Peter Selinger 2001-2017
</metadata>
<g transform="translate(0.000000,138.000000) scale(0.100000,-0.100000)"
fill="#000000" stroke="none">
<path d="M402 850 c-12 -5 -25 -16 -28 -25 -4 -8 1 -73 10 -143 9 -70 16 -151
16 -179 0 -38 4 -53 14 -53 28 0 39 29 33 86 -9 86 0 98 87 124 77 23 138 68
149 110 8 30 -16 64 -53 77 -41 14 -195 16 -228 3z m171 -41 c51 -14 49 -41
-6 -73 -82 -49 -144 -33 -121 31 6 19 21 32 44 40 44 15 38 15 83 2z"/>
<path d="M893 785 c-18 -8 -64 -33 -103 -56 -114 -68 -156 -132 -113 -175 15
-14 31 -16 108 -11 87 6 89 5 65 -11 -40 -28 -90 -73 -90 -83 0 -23 51 -19
116 11 85 38 124 74 124 112 0 41 -34 51 -142 43 -60 -4 -88 -3 -88 4 0 17 73
61 142 86 71 25 86 51 46 79 -27 19 -24 19 -65 1z"/>
</g>
</svg>
